# xmcd
#
# Track frame offsets:
# 150
# 24627
# 43822
# 75340
# 96075
# 114382
# 136657
# 159450
# 178125
# 193275
# 217402
# 232362
# 254240
#
# Disc length: 3704 seconds
#
#
# Revision: 4
# Processed by: cddbd v1.5.1PL2 Copyright (c) Steve Scherf et al.
# Submitted via: FreeRIP 2.942 
#
DISCID=c20e760d
DTITLE=Morning Musume - 4th [Ikimasshoi!]
DYEAR=2002
DGENRE=Pop
TTITLE0="The Peace" (Complete Version)
TTITLE1=Iikotoaru kinen no shyunkan
TTITLE2=Mr. Moonlight -Ai no "Big Band"- (Long Version)
TTITLE3=Hajimete no rokuyunsaato
TTITLE4=Otoko Tomodachi
TTITLE5=Souda! We're ALIVE
TTITLE6=Dekkai uchuu ni ai ga aru (Album Version)
TTITLE7=Ikimassyoi!
TTITLE8=Denki no Futari
TTITLE9=Honki de atsui teemasongu
TTITLE10=Sukina senpai
TTITLE11=Renai "Revolution" 21 (13 people version)
TTITLE12=Nannimo iwazuni I LOVE YOU
EXTD=ID3G: 13
EXTT0=
EXTT1=
EXTT2=
EXTT3=
EXTT4=
EXTT5=
EXTT6=
EXTT7=
EXTT8=
EXTT9=
EXTT10=
EXTT11=
EXTT12=
PLAYORDER=
